<svg version="1" xmlns="http://www.w3.org/2000/svg" width="1333.333" height="1333.333" viewBox="0 0 1000.000000 1000.000000"><path d="M89.3 346.2c.1 156.9.5 286.2.9 287.3.3 1.1.9 4.9 1.3 8.5.4 3.6.9 7.4 1.1 8.5.2 1.1 1.1 5.6 1.9 10 7.4 40.1 22.1 77.4 45.8 116 6.1 9.9 22.3 31.6 29.7 39.6 42.4 45.9 84.3 73.2 147.5 96.2 6.8 2.5 31.5 9.7 38.5 11.3 4.4 1 4.1.9 12.5 2.9 3.9.9 7.9 1.8 9 2 1.1.1 4.7.7 8 1.3 6.5 1.2 9.8 1.8 16 2.7 2.3.3 5.2.7 6.5 1 1.4.3 5 .7 8 1 3 .3 7.8.8 10.5 1.1 28.2 3.5 103 4 129.5.9 1.9-.2 6.7-.6 10.5-.9 3.9-.4 8.1-.8 9.5-1 1.4-.3 5.2-.7 8.5-1 3.3-.3 6.9-.8 8-1 1.1-.2 4-.7 6.5-1 4.6-.6 5.7-.8 16-2.6 10.3-1.9 11.3-2.1 20.4-4.1 62.3-13.8 113.3-36.7 156.6-70.3 9.4-7.3 34.7-31.4 42.7-40.7C844 803 864 774.5 864 772c0-.5.3-1 .8-1 .4 0 1.2-1 1.8-2.3.6-1.2 4-8.1 7.7-15.2 3.6-7.2 7.5-15.5 8.7-18.5 1.1-3 2.5-6.4 3-7.5 5-10.6 14.2-42.2 17.5-60.2.3-1.6.7-3.8.9-5 .3-1.2 1.2-7.1 2-13s1.8-12.6 2.2-14.8c.4-2.2.9-132.1 1.1-288.8l.4-284.7H587.4v271.1c.1 285.2.2 279.8-4.3 294.4-2.2 7-8.6 20.1-12.3 25-3.2 4.3-15.8 16.4-18.8 18-16.9 9.1-27.2 11.8-46.5 11.8-7.7.1-16.6-.2-19.7-.6-36.4-4.3-63.1-21.1-74.8-47-3.1-7-5.7-15.4-6.6-21.8-.4-2.4-.7-127.4-.8-277.6L403.5 61H89l.3 285.2z"/></svg>