<svg width="156" height="156" viewBox="0 0 156 156" fill="none" xmlns="http://www.w3.org/2000/svg">
<path d="M78 153C119.421 153 153 119.421 153 78C153 36.5786 119.421 3 78 3C36.5786 3 3 36.5786 3 78C3 119.421 36.5786 153 78 153Z" stroke="#0A4C6A" stroke-width="6" stroke-miterlimit="10"/>
<path d="M78.0001 87.5603L122.28 63.2903L78.8201 40.2603L33.4001 63.2903L78.0001 87.5603Z" fill="#73BFE2"/>
<path d="M77.84 86.7703V105.1L44.76 86.7703L45.38 70.0503L77.84 86.7703Z" fill="#CFE8F3"/>
<path d="M83.1501 100.35L108.39 86.5801L112.22 84.6201L110.48 70.8101L78.8701 88.6501L79.8101 103.31L84.4101 101.66L83.1501 100.35Z" fill="#CFE8F3"/>
<path d="M104.53 106.91H93.8701V122.53H104.53V106.91Z" fill="#73BFE2"/>
<path d="M125.13 62.7402C124.98 62.2102 124.63 61.7602 124.13 61.5002L78.95 37.4002C78.66 37.2502 78.33 37.1602 78 37.1602C77.67 37.1602 77.34 37.2402 77.05 37.4002L31.86 61.5002C31.2 61.8502 30.79 62.5402 30.79 63.2902C30.79 64.0402 31.2 64.7302 31.86 65.0802L42.46 70.7302C42.63 70.8202 42.75 70.9602 42.84 71.1102V72.3302V73.4802V87.3902C42.84 88.1302 43.24 88.8102 43.9 89.1702L71.21 104.07L76.26 106.82L76.99 107.22C77.01 107.23 77.03 107.24 77.06 107.25C77.09 107.26 77.13 107.28 77.16 107.29C77.19 107.3 77.22 107.31 77.25 107.32C77.25 107.32 77.25 107.32 77.26 107.32H77.27L77.32 107.34C77.58 107.44 77.81 107.49 78.01 107.49C78.21 107.49 78.44 107.44 78.7 107.34L78.75 107.32H78.76C78.79 107.31 78.82 107.3 78.85 107.29C78.88 107.28 78.91 107.27 78.94 107.26C78.97 107.25 79 107.24 79.02 107.23L80 106.7L90.02 101.24L90.03 101.23L97.07 97.3902V103.03C97.07 103.45 96.81 103.82 96.41 103.96C93.2 105.1 91.04 108.14 91.04 111.51V123.56C91.04 124.68 91.95 125.58 93.06 125.58H105.11C106.23 125.58 107.13 124.67 107.13 123.56V111.51C107.13 108.14 104.97 105.1 101.76 103.96C101.37 103.82 101.1 103.45 101.1 103.03V95.1902L109.07 90.8402C109.08 90.8402 109.08 90.8402 109.08 90.8402L112.1 89.1902C112.24 89.1102 112.36 89.0202 112.47 88.9202C112.79 88.6402 113 88.2702 113.09 87.8602C113.12 87.7202 113.15 87.5702 113.15 87.4202V73.0202V72.3302V71.1102C113.24 70.9602 113.36 70.8202 113.53 70.7302L124.13 65.0802C124.79 64.7302 125.2 64.0402 125.2 63.2902C125.21 63.1002 125.18 62.9202 125.13 62.7402ZM75.98 100.39C75.98 100.74 75.8 101.06 75.5 101.24C75.34 101.33 75.17 101.38 75 101.38C74.84 101.38 74.67 101.34 74.53 101.26L47.4 86.4702C47.08 86.3002 46.88 85.9602 46.88 85.6002V74.7402C46.88 74.3902 47.06 74.0702 47.36 73.8902C47.52 73.8002 47.69 73.7502 47.87 73.7502C48.03 73.7502 48.19 73.7902 48.34 73.8702L72.61 86.8102L75.45 88.3302C75.77 88.5002 75.97 88.8402 75.97 89.2002V100.39H75.98ZM81.49 101.26C81.34 101.34 81.18 101.38 81.02 101.38C80.85 101.38 80.67 101.33 80.52 101.24C80.22 101.06 80.04 100.74 80.04 100.39V89.2002C80.04 88.8302 80.24 88.5002 80.56 88.3302L95.62 80.3002C95.77 80.2202 95.93 80.1802 96.09 80.1802C96.27 80.1802 96.44 80.2302 96.6 80.3202C96.9 80.5002 97.08 80.8202 97.08 81.1702V92.7702L81.49 101.26ZM103.09 111.49V120.53C103.09 121.08 102.65 121.52 102.1 121.52H96.08C95.53 121.52 95.09 121.08 95.09 120.53V111.49C95.09 109.28 96.89 107.49 99.09 107.49C101.29 107.49 103.09 109.28 103.09 111.49ZM109.11 85.6002C109.11 85.8702 108.97 86.1102 108.78 86.2902C108.72 86.3502 108.67 86.4202 108.6 86.4702L101.11 90.5502V77.9502C101.11 77.5802 101.31 77.2502 101.63 77.0802L107.65 73.8702C107.72 73.8302 107.8 73.8302 107.88 73.8102C107.96 73.7902 108.03 73.7502 108.11 73.7502C108.29 73.7502 108.46 73.8002 108.62 73.8902C108.92 74.0702 109.1 74.3902 109.1 74.7402V85.6002H109.11ZM117.25 64.1602L100.33 73.1802C100.18 73.2602 100.02 73.3002 99.86 73.3002C99.69 73.3002 99.52 73.2602 99.37 73.1702L79 61.5302C78.7 61.3502 78.35 61.2602 78 61.2602C77.28 61.2602 76.6 61.6502 76.24 62.2902C75.69 63.2602 76.02 64.5002 76.99 65.0502L94.07 74.8102C94.38 74.9902 94.57 75.3202 94.57 75.6802C94.56 76.0402 94.36 76.3702 94.05 76.5402L78.47 84.8502C78.32 84.9302 78.16 84.9702 78 84.9702C77.84 84.9702 77.68 84.9302 77.53 84.8502L74.01 82.9702L71.2 81.4702L38.75 64.1602C38.43 63.9902 38.23 63.6502 38.23 63.2902C38.23 62.9202 38.43 62.5902 38.75 62.4202L77.53 41.7402C77.68 41.6602 77.84 41.6202 78 41.6202C78.16 41.6202 78.32 41.6602 78.47 41.7402L117.25 62.4202C117.57 62.5902 117.77 62.9302 117.77 63.2902C117.77 63.6502 117.57 63.9902 117.25 64.1602Z" fill="#0A4C6A"/>
</svg>
