<svg width="156" height="156" viewBox="0 0 156 156" fill="none" xmlns="http://www.w3.org/2000/svg">
<path d="M78 153C119.421 153 153 119.421 153 78C153 36.5786 119.421 3 78 3C36.5786 3 3 36.5786 3 78C3 119.421 36.5786 153 78 153Z" stroke="#408941" stroke-width="6" stroke-miterlimit="10"/>
<path d="M88.89 103.34H67.04V117.86H88.89V103.34Z" fill="#98CF90"/>
<path d="M115.69 92.8701H40.7V102.45H115.69V92.8701Z" fill="#DCEDD9"/>
<path d="M40.7 42.4302H72.2799L78.2799 48.4302L84.22 42.4902H115.69V92.5702H85.3L78.68 99.1902L71.87 92.3802H40.7V42.4302Z" fill="#BCDEB4"/>
<path d="M115.82 40.4902H88.09C84.5 40.4902 80.98 42.3502 78.67 45.4602C78.51 45.6702 78.27 45.7902 78.01 45.7902C77.75 45.7902 77.5 45.6702 77.35 45.4602C75.04 42.3502 71.52 40.4902 67.93 40.4902H40.18C39.25 40.4902 38.49 41.2502 38.49 42.1802V98.3302C38.49 101.67 41.21 104.38 44.54 104.38H65.39C65.85 104.38 66.22 104.75 66.22 105.21C66.22 112.4 63.74 115.11 62.67 115.95C62.53 116.06 62.35 116.13 62.16 116.13H55.3C54.37 116.13 53.61 116.89 53.61 117.82C53.61 118.75 54.37 119.51 55.3 119.51H100.68C101.61 119.51 102.37 118.75 102.37 117.82C102.37 116.89 101.61 116.13 100.68 116.13H93.8C93.62 116.13 93.44 116.07 93.29 115.95C92.23 115.12 89.77 112.41 89.77 105.21C89.77 104.75 90.14 104.38 90.6 104.38H111.45C114.79 104.38 117.5 101.66 117.5 98.3302V42.1802C117.51 41.2502 116.75 40.4902 115.82 40.4902ZM41.87 44.7002C41.87 44.2402 42.24 43.8702 42.7 43.8702H67.91C72.22 43.8702 76.3 47.9502 76.3 52.2602V92.8202C76.3 93.1402 76.12 93.4302 75.84 93.5602C75.73 93.6202 75.6 93.6402 75.48 93.6402C75.3 93.6402 75.12 93.5802 74.97 93.4602C72.83 91.7802 70.39 90.9002 67.92 90.9002H42.7C42.24 90.9002 41.87 90.5302 41.87 90.0702V44.7002ZM44.54 101C43.07 101 41.87 99.8002 41.87 98.3302V95.1302C41.87 94.6702 42.24 94.3002 42.7 94.3002H67.91C71.18 94.3002 74.38 96.5902 75.71 99.8602C75.81 100.11 75.78 100.4 75.63 100.63C75.48 100.86 75.22 100.99 74.94 100.99H44.54V101ZM88.29 115.73C88.14 115.97 87.87 116.12 87.59 116.12H68.42C68.13 116.12 67.87 115.97 67.72 115.73C67.57 115.49 67.56 115.18 67.68 114.92C68.96 112.36 69.61 109.09 69.61 105.2C69.61 104.74 69.98 104.37 70.44 104.37H85.57C86.03 104.37 86.4 104.74 86.4 105.2C86.4 109.09 87.05 112.36 88.33 114.92C88.45 115.18 88.44 115.49 88.29 115.73ZM114.13 98.3302C114.13 99.8002 112.93 101 111.46 101H81.06C80.78 101 80.53 100.86 80.37 100.64C80.22 100.41 80.19 100.12 80.29 99.8702C81.62 96.6002 84.82 94.3102 88.09 94.3102H113.3C113.76 94.3102 114.13 94.6802 114.13 95.1402V98.3302ZM114.13 90.0902C114.13 90.5502 113.76 90.9202 113.3 90.9202H88.09C85.62 90.9202 83.18 91.8102 81.04 93.4802C80.89 93.6002 80.71 93.6602 80.53 93.6602C80.41 93.6602 80.28 93.6302 80.17 93.5802C79.88 93.4402 79.7 93.1502 79.7 92.8402V52.2702C79.7 47.9602 83.78 43.8802 88.09 43.8802H113.3C113.76 43.8802 114.13 44.2502 114.13 44.7102V90.0902Z" fill="#408941"/>
<path d="M52.79 53.9601H65.4C66.33 53.9601 67.0899 53.2001 67.0899 52.2701C67.0899 51.3401 66.33 50.5801 65.4 50.5801H52.79C51.86 50.5801 51.1 51.3401 51.1 52.2701C51.09 53.2001 51.85 53.9601 52.79 53.9601Z" fill="#408941"/>
<path d="M50.2601 64.0402H67.9101C68.8401 64.0402 69.6001 63.2802 69.6001 62.3502C69.6001 61.4202 68.8401 60.6602 67.9101 60.6602H50.2601C49.3301 60.6602 48.5701 61.4202 48.5701 62.3502C48.5701 63.2802 49.3301 64.0402 50.2601 64.0402Z" fill="#408941"/>
<path d="M50.2601 84.2101H67.9101C68.8401 84.2101 69.6001 83.4501 69.6001 82.5201C69.6001 81.5901 68.8401 80.8301 67.9101 80.8301H50.2601C49.3301 80.8301 48.5701 81.5901 48.5701 82.5201C48.5701 83.4501 49.3301 84.2101 50.2601 84.2101Z" fill="#408941"/>
<path d="M50.2601 74.13H67.9101C68.8401 74.13 69.6001 73.37 69.6001 72.44C69.6001 71.51 68.8401 70.75 67.9101 70.75H50.2601C49.3301 70.75 48.5701 71.51 48.5701 72.44C48.5701 73.37 49.3301 74.13 50.2601 74.13Z" fill="#408941"/>
<path d="M105.73 60.6602H88.0899C87.1599 60.6602 86.3999 61.4202 86.3999 62.3502C86.3999 63.2802 87.1599 64.0402 88.0899 64.0402H105.74C106.67 64.0402 107.43 63.2802 107.43 62.3502C107.43 61.4202 106.67 60.6602 105.73 60.6602Z" fill="#408941"/>
<path d="M98.1699 80.8301H88.0899C87.1599 80.8301 86.3999 81.5901 86.3999 82.5201C86.3999 83.4501 87.1599 84.2101 88.0899 84.2101H98.1799C99.1099 84.2101 99.8699 83.4501 99.8699 82.5201C99.8599 81.5901 99.0999 80.8301 98.1699 80.8301Z" fill="#408941"/>
<path d="M105.73 70.7402H88.0899C87.1599 70.7402 86.3999 71.5002 86.3999 72.4302C86.3999 73.3602 87.1599 74.1202 88.0899 74.1202H105.74C106.67 74.1202 107.43 73.3602 107.43 72.4302C107.43 71.5002 106.67 70.7402 105.73 70.7402Z" fill="#408941"/>
<path d="M90.61 53.9601H103.22C104.15 53.9601 104.91 53.2001 104.91 52.2701C104.91 51.3401 104.15 50.5801 103.22 50.5801H90.61C89.68 50.5801 88.92 51.3401 88.92 52.2701C88.91 53.2001 89.67 53.9601 90.61 53.9601Z" fill="#408941"/>
</svg>
