<svg width="156" height="156" viewBox="0 0 156 156" fill="none" xmlns="http://www.w3.org/2000/svg">
<path d="M78 153C119.421 153 153 119.421 153 78C153 36.5786 119.421 3 78 3C36.5786 3 3 36.5786 3 78C3 119.421 36.5786 153 78 153Z" stroke="#E25552" stroke-width="6" stroke-miterlimit="10"/>
<path d="M54.7868 40.4434L115.167 100.824L100.561 115.421L40.2075 55.0679L54.7868 40.4434Z" fill="#F8D5D4"/>
<path d="M44.7324 100.824L47.7098 88.8506L64.8411 105.991L53.8184 110.208L44.7324 100.824Z" fill="white"/>
<path d="M43.6919 100.823L40.624 116.045L53.2395 110.778L43.6919 100.823Z" fill="#E9807D"/>
<path d="M105.584 68.0174L113.077 60.5151L95.656 43.0942L88.0813 50.6689L105.584 68.0174Z" fill="white"/>
<path d="M113.493 59.1945L116.525 52.1447L113.077 44.1537L104.253 39.9546L95.8459 42.4885L113.493 59.1945Z" fill="#E9807D"/>
<path d="M87.7011 50.2891L47.71 87.7101L65.2033 105.212L105.584 68.0177L87.7011 50.2891Z" fill="#F1AAA9"/>
<path d="M97.2125 79.4839C97.0496 79.321 96.9681 79.1038 96.9681 78.8775C96.9681 78.6513 97.0677 78.4341 97.2305 78.2803L106.389 69.6467C106.407 69.6196 106.434 69.6015 106.452 69.5743C106.47 69.5562 106.498 69.5291 106.525 69.511L114.127 61.9091C119.466 56.5697 119.249 48.2892 113.62 42.6602C110.679 39.719 106.724 38.0267 102.778 38.0267C99.3301 38.0267 96.1627 39.3027 93.8459 41.6104L86.1807 49.2756L76.9047 58.0177C76.7418 58.1716 76.5336 58.244 76.3345 58.244C76.1173 58.244 75.9092 58.1625 75.7463 57.9996L56.2439 38.5063C55.9181 38.1805 55.4837 37.9995 55.0312 37.9995C54.5697 37.9995 54.1444 38.1805 53.8186 38.4973L38.5063 53.8186C37.8366 54.4883 37.8366 55.5743 38.5063 56.2439L57.4385 75.1852C57.6014 75.3481 57.6828 75.5653 57.6828 75.7916C57.6828 76.0178 57.5833 76.235 57.4204 76.3888L46.2439 86.9138C46.2258 86.9319 46.2077 86.95 46.1896 86.9681C46.0538 87.0948 45.9452 87.2577 45.8457 87.4658C45.8276 87.5111 45.8095 87.5473 45.7914 87.5925C45.7733 87.6468 45.7461 87.6921 45.719 87.7554L38.0628 115.828C37.8909 116.452 38.099 117.131 38.5787 117.556C38.8954 117.837 39.2936 117.991 39.719 117.991C39.9361 117.991 40.1533 117.946 40.3524 117.873L65.8639 107.665C66.0177 107.602 66.1716 107.502 66.3526 107.348C66.3978 107.312 66.434 107.285 66.4702 107.258L77.1309 97.2125L77.0766 97.2668C77.4205 96.941 77.8639 96.7781 78.2983 96.7781C78.7418 96.7781 79.1762 96.95 79.5201 97.2758L99.7283 117.493C100.054 117.819 100.479 118 100.941 118C101.403 118 101.828 117.819 102.154 117.493L117.466 102.181C118.136 101.511 118.136 100.425 117.466 99.7555L97.2125 79.4839ZM98.6242 42.4068C99.8821 41.7914 101.267 41.4746 102.742 41.4746C105.783 41.4746 108.941 42.8231 111.203 45.0765C114.67 48.5426 115.52 53.3028 113.375 57.2032C113.249 57.4295 113.022 57.5924 112.76 57.6286C112.724 57.6376 112.679 57.6376 112.642 57.6376C112.425 57.6376 112.208 57.5471 112.054 57.3933L98.4161 43.7461C98.226 43.5561 98.1355 43.2846 98.1808 43.0131C98.217 42.7597 98.3799 42.5335 98.6242 42.4068ZM90.416 49.9L94.4613 45.8548C94.6152 45.7009 94.8323 45.6104 95.0495 45.6104C95.2758 45.6104 95.4839 45.7009 95.6378 45.8548L109.891 60.1082C110.217 60.434 110.217 60.968 109.891 61.2937L105.846 65.339C105.692 65.4929 105.475 65.5834 105.258 65.5834C105.031 65.5834 104.823 65.4929 104.67 65.339L90.416 51.0855C90.0902 50.7507 90.0902 50.2258 90.416 49.9ZM42.7325 55.6195C42.4067 55.2937 42.4067 54.7598 42.7325 54.434L54.434 42.7326C54.5878 42.5787 54.805 42.4882 55.0222 42.4882C55.2484 42.4882 55.4566 42.5787 55.6104 42.7326L59.6557 46.7778C59.9815 47.1036 59.9815 47.6376 59.6557 47.9634L56.3525 51.2665C55.6828 51.9362 55.6828 53.0222 56.3525 53.6919C56.6783 54.0177 57.1037 54.1987 57.5652 54.1987C58.0267 54.1987 58.4521 54.0177 58.7779 53.6919L62.0811 50.3887C62.2349 50.2349 62.4521 50.1444 62.6693 50.1444C62.8955 50.1444 63.1037 50.2349 63.2575 50.3887L66.0268 53.158C66.3526 53.4838 66.3526 54.0177 66.0268 54.3435L62.7236 57.6467C62.0539 58.3164 62.0539 59.4023 62.7236 60.072C63.0494 60.3978 63.4747 60.5788 63.9363 60.5788C64.3978 60.5788 64.8232 60.3978 65.1489 60.072L68.4521 56.7688C68.606 56.615 68.8232 56.5245 69.0404 56.5245C69.2576 56.5245 69.4748 56.615 69.6286 56.7688L73.1852 60.3254C73.3481 60.4883 73.4386 60.7055 73.4295 60.9318C73.4295 61.158 73.33 61.3752 73.1671 61.529L61.1399 72.8866C60.977 73.0404 60.7688 73.1128 60.5607 73.1128C60.3435 73.1128 60.1353 73.0314 59.9725 72.8685L42.7325 55.6195ZM50.4611 87.6559L86.778 53.4385C86.9409 53.2847 87.1491 53.2123 87.3572 53.2123C87.5744 53.2123 87.7825 53.2937 87.9454 53.4566L93.3029 58.8141C93.4658 58.977 93.5563 59.1942 93.5473 59.4204C93.5473 59.6467 93.4477 59.8639 93.2848 60.0177L56.8955 94.1536C56.7326 94.3075 56.5245 94.3799 56.3254 94.3799C56.1082 94.3799 55.9 94.2984 55.7371 94.1355L50.443 88.8595C50.2801 88.6966 50.1986 88.4794 50.1986 88.2532C50.2077 88.0269 50.2982 87.8097 50.4611 87.6559ZM50.0719 110.299L43.8457 112.796C43.7461 112.832 43.6375 112.86 43.538 112.86C43.3389 112.86 43.1398 112.787 42.9769 112.651C42.7416 112.443 42.642 112.108 42.7235 111.801L44.5878 104.95C44.6692 104.66 44.8955 104.434 45.185 104.362C45.2574 104.344 45.3298 104.335 45.4022 104.335C45.6194 104.335 45.8366 104.425 45.9905 104.579L50.3525 108.941C50.5516 109.14 50.633 109.43 50.5787 109.701C50.5244 109.964 50.3344 110.19 50.0719 110.299ZM61.0041 105.918L56.0177 107.909C54.4611 108.534 53.7281 107.457 53.7281 107.457L46.3525 100.072C46.1443 99.8641 46.0538 99.5473 46.1353 99.2577L47.8728 92.8957C47.9543 92.6061 48.1805 92.3799 48.4701 92.3075C48.5425 92.2894 48.6149 92.2803 48.6873 92.2803C48.9045 92.2803 49.1217 92.3708 49.2756 92.5247L61.2937 104.543C61.4928 104.742 61.5833 105.032 61.52 105.303C61.4566 105.584 61.2666 105.819 61.0041 105.918ZM65.8639 103.131C65.701 103.285 65.4928 103.357 65.2847 103.357C65.0675 103.357 64.8594 103.276 64.6965 103.113L59.339 97.7555C59.1761 97.5926 59.0946 97.3754 59.0946 97.1491C59.0946 96.9229 59.1942 96.7057 59.3571 96.5518L95.7464 62.4069C95.9093 62.253 96.1174 62.1806 96.3165 62.1806C96.5337 62.1806 96.7419 62.2621 96.9048 62.425L102.19 67.7101C102.353 67.873 102.434 68.0902 102.434 68.3164C102.434 68.5427 102.335 68.7598 102.172 68.9137L65.8639 103.131ZM113.249 101.556L101.547 113.258C101.393 113.412 101.176 113.502 100.959 113.502C100.733 113.502 100.525 113.412 100.371 113.258L82.0631 94.9591C81.7463 94.6152 81.5834 94.1808 81.5834 93.7464C81.5834 93.3301 81.7463 92.9229 82.045 92.579L93.5111 81.7735C93.674 81.6196 93.8821 81.5472 94.0903 81.5472C94.3075 81.5472 94.5156 81.6287 94.6785 81.7916L99.2215 86.3346C99.5473 86.6604 99.5473 87.1943 99.2215 87.5201L95.9183 90.8233C95.2486 91.493 95.2486 92.579 95.9183 93.2487C96.2441 93.5745 96.6695 93.7464 97.131 93.7464C97.5925 93.7464 98.0179 93.5654 98.3437 93.2487L101.647 89.9455C101.801 89.7916 102.018 89.7011 102.235 89.7011C102.461 89.7011 102.669 89.7916 102.823 89.9455L105.593 92.7147C105.918 93.0405 105.918 93.5745 105.593 93.9002L102.289 97.2034C101.62 97.8731 101.62 98.9591 102.289 99.6288C102.615 99.9546 103.041 100.136 103.502 100.136C103.964 100.136 104.389 99.9546 104.715 99.6288L108.018 96.3256C108.172 96.1717 108.389 96.0813 108.606 96.0813C108.832 96.0813 109.041 96.1717 109.203 96.3256L113.249 100.371C113.575 100.706 113.575 101.231 113.249 101.556Z" fill="#E25552"/>
</svg>
